<?xml version="1.0" encoding="UTF-8"?>
<svg id="Layer_3" data-name="Layer 3" xmlns="http://www.w3.org/2000/svg" viewBox="0 0 48.37 47.81">
  <defs>
    <style>
      .cls-1 {
        fill: none;
        stroke: currentColor;
        stroke-width: 2;
        stroke-miterlimit: 10;
      }
    </style>
  </defs>
  <line class="cls-1" x1="33.99" y1="25.9" x2="47.55" y2="25.9"/>
  <line class="cls-1" x1="33.99" y1="21.62" x2="47.55" y2="21.62"/>
  <line class="cls-1" x1="23.74" y1="28.41" x2="23.74" y2="41.06"/>
  <g>
    <rect class="cls-1" x="19.58" y="19.59" width="8.32" height="8.48"/>
    <line class="cls-1" x1="19.58" y1="19.59" x2="27.9" y2="28.07"/>
    <line class="cls-1" x1="19.58" y1="28.07" x2="27.9" y2="19.59"/>
  </g>
  <path class="cls-1" d="M40.77,21.5V5.97H6.61v8.29h-.15c-3.39.1-5.54,1.58-5.54,2.79s2.57,2.41,5.74,2.82c3.17.4,5.73-.12,5.73-1.06s-2.56-1.46-5.73-1.04c-3.16.42-5.72,1.65-5.72,2.87s2.56,2.44,5.71,2.87c3.15.43,5.71-.08,5.71-1.01s-2.55-1.43-5.7-1.01c-3.14.42-5.69,1.65-5.69,2.86s2.55,2.43,5.68,2.84c3.14.41,5.68-.11,5.68-1.04s-2.54-1.45-5.67-1.06c-3.13.39-5.66,1.58-5.66,2.77s2.53,2.37,5.66,2.73c3.12.36,5.65-.2,5.65-1.15-.08-.64-2.51-.89-5.65-.98-3.08.13-5.63,1.23-5.63,2.39s2.1,2.54,5.39,2.54h.23v7.66s34.12-.13,34.12-.13v-15.03"/>
  <line class="cls-1" x1="23.74" y1="5.97" x2="23.74" y2="19.23"/>
</svg>