<?xml version="1.0" standalone="no"?>
<!DOCTYPE svg PUBLIC "-//W3C//DTD SVG 20010904//EN"
 "http://www.w3.org/TR/2001/REC-SVG-20010904/DTD/svg10.dtd">
<svg version="1.0" xmlns="http://www.w3.org/2000/svg"
 width="128.000000pt" height="128.000000pt" viewBox="0 0 128.000000 128.000000"
 preserveAspectRatio="xMidYMid meet">

<g transform="translate(0.000000,128.000000) scale(0.100000,-0.100000)"
fill="#000000" stroke="none">
<path d="M510 1154 c-175 -46 -314 -175 -372 -342 -33 -95 -33 -249 0 -344
141 -406 687 -485 933 -135 70 100 94 178 94 307 0 129 -24 207 -94 307 -125
177 -354 262 -561 207z m209 -94 c223 -42 380 -263 343 -482 -33 -189 -172
-330 -358 -360 -279 -47 -532 209 -486 488 39 238 267 399 501 354z"/>
<path d="M395 886 c-34 -35 -23 -58 56 -117 75 -56 112 -60 128 -16 12 31 0
49 -67 100 -77 59 -88 62 -117 33z"/>
<path d="M840 902 c-24 -8 -129 -92 -139 -110 -13 -25 4 -60 33 -68 21 -5 40
4 95 45 38 28 71 60 74 70 9 34 -31 74 -63 63z"/>
<path d="M403 620 c-29 -26 -35 -64 -23 -129 25 -133 128 -221 260 -221 132 0
235 88 260 221 12 65 6 103 -23 129 -19 19 -36 20 -237 20 -201 0 -218 -1
-237 -20z m393 -121 c-13 -66 -89 -129 -156 -129 -67 0 -143 63 -156 129 l-6
31 162 0 163 0 -7 -31z"/>
</g>
</svg>
